<?xml version="1.0" encoding="utf-8"?>
<!-- Generator: Adobe Illustrator 19.0.1, SVG Export Plug-In . SVG Version: 6.00 Build 0)  -->
<svg version="1.1" id="Layer_1" xmlns="http://www.w3.org/2000/svg" xmlns:xlink="http://www.w3.org/1999/xlink" x="0px" y="0px"
	 viewBox="0 0 91 91" style="enable-background:new 0 0 91 91;" xml:space="preserve">
<style type="text/css">
	.st0{fill:#616466;}
</style>
<g>
	<path class="st0" d="M18.7,32h47.8c2.2,0,4-1.8,4-4s-1.8-4-4-4H18.7c-2.2,0-4,1.8-4,4S16.5,32,18.7,32z"/>
	<path class="st0" d="M68,46c0-2.2-1.8-4-4-4H4.1c-2.2,0-4,1.8-4,4s1.8,4,4,4H64C66.2,50,68,48.3,68,46z"/>
	<path class="st0" d="M86.9,59H27c-2.2,0-4,1.8-4,4c0,2.2,1.8,4,4,4h59.9c2.2,0,4-1.8,4-4S89.1,59,86.9,59z"/>
</g>
</svg>
